<svg id="图层_1" data-name="图层 1" xmlns="http://www.w3.org/2000/svg" viewBox="0 0 200 200"><defs><style>.cls-1{fill:#0cab24;}.cls-2{fill:#fff;}</style></defs><rect class="cls-1" width="200" height="200" rx="16"/><path class="cls-2" d="M165.54,29.33a3.11,3.11,0,0,0-3.89-1C144.29,36.58,118.86,53.62,99.7,87c11.11,16.87,20.73,38.59,25.79,66.24.66-27.63,6.14-87.19,39.67-119.91A3.12,3.12,0,0,0,165.54,29.33Z" transform="translate(0 0)"/><path class="cls-2" d="M51,53.23a3.09,3.09,0,0,0-1.7-.5,3.1,3.1,0,0,0-2.46,5c33.81,43.3,24.44,118,21.73,135.24a3.13,3.13,0,0,0,3.08,3.61h43.51a3.12,3.12,0,0,0,3.12-3.15C117.26,109.28,75.93,69.57,51,53.23Z" transform="translate(0 0)"/><path class="cls-2" d="M24.64,128.7a1.47,1.47,0,0,0-1.89.23,1.48,1.48,0,0,0-.08,1.91c16,20.53,11.59,56,10.3,64.11a1.41,1.41,0,0,0,.34,1.16,1.43,1.43,0,0,0,1.12.48H55.06a1.42,1.42,0,0,0,1.48-1.44C56.06,155.25,36.47,136.45,24.64,128.7Z" transform="translate(0 0)"/><path class="cls-2" d="M177,103.25a2,2,0,0,0-2.61-.33c-16.31,10.68-43.32,36.65-44,91.68A2,2,0,0,0,131,196a2,2,0,0,0,1.45.57h28.45a2,2,0,0,0,1.55-.68,2,2,0,0,0,.46-1.62c-1.77-11.25-7.9-60.11,14.21-88.42A2,2,0,0,0,177,103.25Z" transform="translate(0 0)"/></svg>